<svg xmlns="http://www.w3.org/2000/svg" xmlns:xlink="http://www.w3.org/1999/xlink" width="500" zoomAndPan="magnify" viewBox="0 0 375 374.999991" height="500" preserveAspectRatio="xMidYMid meet" version="1.0"><defs><g/><clipPath id="cf9a6ec204"><path d="M 141 131.761719 L 191 131.761719 L 191 195.511719 L 141 195.511719 Z M 141 131.761719 " clip-rule="nonzero"/></clipPath><clipPath id="58a24b5968"><path d="M 188 131.761719 L 234 131.761719 L 234 195.511719 L 188 195.511719 Z M 188 131.761719 " clip-rule="nonzero"/></clipPath></defs><rect x="-37.5" width="450" fill="#ffffff" y="-37.499999" height="449.999989" fill-opacity="1"/><rect x="-37.5" width="450" fill="#ffffff" y="-37.499999" height="449.999989" fill-opacity="1"/><rect x="-37.5" width="450" fill="#360892" y="-37.499999" height="449.999989" fill-opacity="1"/><g clip-path="url(#cf9a6ec204)"><path fill="#5ce1e6" d="M 190.476562 150.746094 L 184.488281 171.875 L 178.191406 171.875 C 174.921875 171.875 172.082031 174.078125 171.214844 177.203125 L 169.304688 184.304688 C 167.511719 190.859375 161.464844 195.511719 154.734375 195.511719 C 146.589844 195.511719 140.476562 188.714844 141.402344 180.628906 L 145.476562 145.417969 C 146.339844 137.761719 153.070312 131.761719 160.847656 131.761719 L 175.042969 131.761719 C 177.328125 131.761719 178.992188 133.964844 178.316406 136.109375 L 174.613281 148.234375 C 174.179688 149.460938 175.167969 150.746094 176.464844 150.746094 L 190.476562 150.746094 " fill-opacity="1" fill-rule="nonzero"/></g><g clip-path="url(#58a24b5968)"><path fill="#5ce1e6" d="M 220.414062 195.511719 C 213.683594 195.511719 207.574219 190.859375 205.84375 184.304688 L 203.929688 177.203125 C 203.066406 174.078125 200.226562 171.875 196.957031 171.875 L 188.683594 171.875 L 209.734375 145.171875 C 210.351562 144.4375 209.796875 143.335938 208.808594 143.335938 L 201.769531 143.335938 L 205.96875 134.148438 C 206.648438 132.679688 208.128906 131.761719 209.734375 131.761719 L 214.363281 131.761719 C 222.078125 131.761719 228.867188 137.761719 229.734375 145.417969 L 233.808594 180.628906 C 234.734375 188.652344 228.621094 195.511719 220.414062 195.511719 " fill-opacity="1" fill-rule="nonzero"/></g><g fill="#ffffff" fill-opacity="1"><g transform="translate(107.062542, 230.984649)"><g><path d="M 11.902344 -11.839844 C 10.664062 -12.335938 6.105469 -13.019531 6.105469 -14.910156 C 6.105469 -16.304688 7.8125 -16.707031 8.835938 -16.707031 C 9.765625 -16.707031 10.878906 -16.429688 11.46875 -15.871094 C 11.839844 -15.5 11.996094 -15.25 12.121094 -14.941406 C 12.273438 -14.539062 12.367188 -14.105469 12.957031 -14.105469 L 15.996094 -14.105469 C 16.707031 -14.105469 16.894531 -14.226562 16.894531 -14.972656 C 16.894531 -19.0625 12.585938 -20.859375 8.648438 -20.859375 C 4.773438 -20.707031 1.117188 -18.722656 1.117188 -14.691406 C 1.117188 -10.757812 4 -9.515625 7.128906 -8.523438 C 9.765625 -7.6875 12.523438 -7.65625 12.523438 -5.921875 C 12.523438 -4.183594 11.160156 -3.8125 9.484375 -3.8125 C 8.339844 -3.8125 7.066406 -4.089844 6.449219 -4.835938 C 6.042969 -5.300781 5.890625 -5.703125 5.859375 -6.105469 C 5.796875 -6.882812 5.457031 -6.972656 4.742188 -6.972656 L 1.734375 -6.972656 C 1.023438 -6.972656 0.835938 -6.820312 0.835938 -6.105469 C 0.835938 -1.765625 5.300781 0.464844 9.175781 0.464844 C 13.949219 0.464844 17.421875 -1.644531 17.421875 -6.042969 C 17.421875 -10.261719 14.136719 -11.160156 11.902344 -11.839844 Z M 11.902344 -11.839844 "/></g></g></g><g fill="#ffffff" fill-opacity="1"><g transform="translate(125.815207, 230.984649)"><g><path d="M 16.085938 -20.394531 L 1.703125 -20.394531 C 0.992188 -20.394531 0.804688 -20.054688 0.804688 -19.496094 L 0.804688 -16.925781 C 0.804688 -16.367188 0.992188 -16.027344 1.703125 -16.027344 L 6.476562 -16.027344 L 6.476562 -0.898438 C 6.476562 -0.1875 6.820312 0 7.378906 0 L 10.445312 0 C 11.003906 0 11.34375 -0.1875 11.34375 -0.898438 L 11.34375 -16.027344 L 16.085938 -16.027344 C 16.800781 -16.027344 16.988281 -16.367188 16.988281 -16.925781 L 16.988281 -19.496094 C 16.988281 -20.054688 16.800781 -20.394531 16.085938 -20.394531 Z M 16.085938 -20.394531 "/></g></g></g><g fill="#ffffff" fill-opacity="1"><g transform="translate(143.606993, 230.984649)"><g><path d="M 18.320312 -6.539062 L 18.320312 -13.855469 C 18.320312 -18.753906 13.667969 -20.859375 9.980469 -20.859375 C 6.292969 -20.859375 1.703125 -18.753906 1.703125 -13.855469 L 1.703125 -6.539062 C 1.703125 -1.644531 6.292969 0.464844 9.980469 0.464844 C 13.667969 0.464844 18.320312 -1.644531 18.320312 -6.539062 Z M 13.453125 -13.421875 L 13.453125 -6.972656 C 13.453125 -4.992188 12.027344 -3.84375 9.980469 -3.84375 C 7.964844 -3.84375 6.539062 -4.992188 6.539062 -6.972656 L 6.539062 -13.421875 C 6.539062 -15.40625 7.964844 -16.550781 9.980469 -16.550781 C 12.027344 -16.550781 13.453125 -15.40625 13.453125 -13.421875 Z M 13.453125 -13.421875 "/></g></g></g><g fill="#ffffff" fill-opacity="1"><g transform="translate(163.599499, 230.984649)"><g><path d="M 19 -0.992188 L 14.628906 -7.347656 C 16.550781 -7.996094 18.941406 -10.261719 18.941406 -13.515625 C 18.941406 -15.5 18.289062 -17.265625 17.140625 -18.382812 C 15.839844 -19.683594 14.351562 -20.367188 10.972656 -20.367188 L 3.160156 -20.367188 C 2.449219 -20.367188 2.292969 -20.023438 2.292969 -19.464844 L 2.292969 -0.898438 C 2.292969 -0.1875 2.605469 0 3.160156 0 L 6.230469 0 C 6.789062 0 7.128906 -0.1875 7.128906 -0.898438 L 7.128906 -16.027344 L 11.253906 -16.027344 C 12.863281 -16.027344 14.105469 -15.003906 14.105469 -13.390625 C 14.105469 -11.933594 12.679688 -10.878906 11.160156 -10.878906 L 10.539062 -10.878906 C 9.828125 -10.878906 9.640625 -10.539062 9.640625 -9.980469 L 9.640625 -7.5 C 9.640625 -6.632812 9.703125 -6.292969 9.980469 -5.921875 L 13.328125 -0.929688 C 13.761719 -0.277344 14.136719 0 14.878906 0 L 18.535156 0 C 19.125 0 19.28125 -0.558594 19 -0.992188 Z M 19 -0.992188 "/></g></g></g><g fill="#ffffff" fill-opacity="1"><g transform="translate(184.242934, 230.984649)"><g><path d="M 20.582031 -20.425781 L 17.605469 -20.425781 C 16.582031 -20.425781 16.429688 -19.746094 16.210938 -19.375 L 11.933594 -11.75 L 7.6875 -19.375 C 7.4375 -19.746094 7.316406 -20.425781 6.261719 -20.425781 L 3.191406 -20.425781 C 2.480469 -20.425781 2.292969 -20.085938 2.292969 -19.527344 L 2.292969 -0.898438 C 2.292969 -0.1875 2.636719 0 3.191406 0 L 6.261719 0 C 6.820312 0 7.160156 -0.1875 7.160156 -0.898438 L 7.160156 -11.40625 L 10.292969 -5.984375 C 10.445312 -5.734375 10.695312 -5.332031 11.160156 -5.332031 L 12.707031 -5.332031 C 13.175781 -5.332031 13.453125 -5.734375 13.609375 -5.984375 L 16.707031 -11.40625 L 16.707031 -0.898438 C 16.707031 -0.1875 17.046875 0 17.605469 0 L 20.582031 0 C 21.140625 0 21.480469 -0.1875 21.480469 -0.898438 L 21.480469 -19.527344 C 21.480469 -20.085938 21.296875 -20.425781 20.582031 -20.425781 Z M 20.582031 -20.425781 "/></g></g></g><g fill="#ffffff" fill-opacity="1"><g transform="translate(208.01698, 230.984649)"><g><path d="M 10.167969 -20.394531 L 3.191406 -20.394531 C 2.480469 -20.394531 2.292969 -20.054688 2.292969 -19.496094 L 2.292969 -0.898438 C 2.292969 -0.1875 2.636719 0 3.191406 0 L 6.261719 0 C 6.820312 0 7.160156 -0.1875 7.160156 -0.898438 L 7.160156 -6.042969 L 10.136719 -6.042969 C 15.4375 -6.042969 18.289062 -8.894531 18.289062 -13.203125 C 18.289062 -17.484375 15.5 -20.394531 10.167969 -20.394531 Z M 10.136719 -10.230469 L 7.160156 -10.230469 L 7.160156 -16.027344 L 10.136719 -16.027344 C 12.554688 -16.027344 13.609375 -14.722656 13.609375 -13.113281 C 13.609375 -11.5625 12.554688 -10.230469 10.136719 -10.230469 Z M 10.136719 -10.230469 "/></g></g></g><g fill="#ffffff" fill-opacity="1"><g transform="translate(227.482555, 230.984649)"><g><path d="M 19.839844 -0.867188 L 12.988281 -19.433594 C 12.707031 -20.085938 12.398438 -20.394531 11.71875 -20.394531 L 8.742188 -20.394531 C 8.058594 -20.394531 7.71875 -20.085938 7.46875 -19.433594 L 0.589844 -0.867188 C 0.433594 -0.496094 0.433594 0 1.117188 0 L 4.371094 0 C 5.050781 0 5.300781 -0.1875 5.546875 -0.929688 L 6.417969 -3.378906 L 14.011719 -3.378906 L 14.878906 -0.929688 C 15.125 -0.1875 15.375 0 16.058594 0 L 19.3125 0 C 19.992188 0 19.992188 -0.496094 19.839844 -0.867188 Z M 10.230469 -14.570312 L 12.554688 -7.71875 L 7.90625 -7.71875 Z M 10.230469 -14.570312 "/></g></g></g><g fill="#ffffff" fill-opacity="1"><g transform="translate(247.785026, 230.984649)"><g><path d="M 10.136719 -20.394531 L 3.191406 -20.394531 C 2.480469 -20.394531 2.292969 -20.054688 2.292969 -19.496094 L 2.292969 -0.898438 C 2.292969 -0.339844 2.480469 0 3.191406 0 L 10.136719 0 C 13.824219 0 18.472656 -2.109375 18.472656 -6.972656 L 18.472656 -13.421875 C 18.472656 -18.257812 13.824219 -20.394531 10.136719 -20.394531 Z M 13.609375 -12.988281 L 13.609375 -7.410156 C 13.609375 -5.425781 12.183594 -4.308594 10.136719 -4.308594 L 7.160156 -4.308594 L 7.160156 -16.085938 L 10.136719 -16.085938 C 12.183594 -16.085938 13.609375 -14.941406 13.609375 -12.988281 Z M 13.609375 -12.988281 "/></g></g></g></svg>